<?xml version="1.0" encoding="utf-8"?>
<!-- Generator: Adobe Illustrator 24.3.0, SVG Export Plug-In . SVG Version: 6.00 Build 0)  -->
<svg version="1.0" id="katman_1" xmlns="http://www.w3.org/2000/svg" xmlns:xlink="http://www.w3.org/1999/xlink" x="0px" y="0px"
	 viewBox="0 0 841.89 595.28" style="enable-background:new 0 0 841.89 595.28;" xml:space="preserve">
<style type="text/css">
	.st0{fill:#9A425B;}
	.st1{fill:#FFFFFF;}
</style>
<path class="st0" d="M596.95,292.75c0-22.75-18.44-41.19-41.19-41.2c-1.45,0-2.89,0.08-4.33,0.23l56.57-166.85H367.59l56.5,166.71
	c-22.71-1.38-42.23,15.92-43.61,38.62c-1.14,18.82,10.64,36,28.6,41.73c-8.76,15.09-19.67,28.82-32.39,40.77
	c-17.06,16.09-36.59,28.3-57.71,35.82c-25.14-12.91-37.03-41.64-26.31-66.83c1.2-2.85,2.44-5.73,3.62-8.6
	c22.16-5.19,35.91-27.35,30.73-49.51c-5.19-22.16-27.35-35.91-49.51-30.73c-22.16,5.19-35.91,27.35-30.73,49.51
	c2.31,9.86,8.17,18.53,16.47,24.35c-10.19,23.2-25.17,47.5-29.85,75.65c-5.59,33.74-0.01,69.55,29.16,89.79
	c67.97,47.1,141.75-29.21,219.53-48.38c28.19-6.96,59.14-5.83,83.97-20.23c18.65-10.8,30.95-28.7,34.44-48.81
	c3.45-19.85-1.57-39.62-13.14-55.65C593.58,311.74,596.97,302.39,596.95,292.75L596.95,292.75z"/>
<path class="st1" d="M590.6,373.08c-3.03,17.44-13.81,32.69-29.58,41.82c-14.69,8.5-32.29,11.05-50.93,13.74
	c-9.98,1.44-20.31,2.93-30.39,5.42c-26.68,6.57-52.51,19.41-77.49,31.82c-50.01,24.84-93.18,46.28-133.9,18.06
	c-29.82-20.67-28.44-58.91-24.97-79.87c3.22-19.41,11.92-37.3,20.34-54.59c1.46-2.99,2.88-5.92,4.27-8.83
	c4.18,1.66,8.62,2.8,13.24,3.32c-8.57,28.29,4.91,59.03,33.2,73.56l3.87,2l4.1-1.46c22.36-7.97,42.97-20.74,61.24-37.99
	c11.6-10.91,21.78-23.22,30.32-36.65c28.03,4.2,54.15-15.12,58.35-43.14c0.04-0.25,0.07-0.51,0.11-0.77
	c10.86-0.39,21.74-0.39,32.6,0c3.42,25.44,25.11,44.45,50.79,44.48c10.45,0.01,20.65-3.19,29.22-9.18
	C590.85,346.65,592.82,360.05,590.6,373.08z M286.89,261.91c17.18,0.02,31.11,13.94,31.13,31.12c-0.01,17.2-13.97,31.13-31.17,31.12
	c-3.7,0-7.37-0.66-10.84-1.96c-6.82-2.56-12.54-7.43-16.16-13.76c-2.69-4.69-4.1-10-4.1-15.41
	C255.79,275.85,269.71,261.93,286.89,261.91z M390.45,292.74c0.03-17.18,13.95-31.1,31.13-31.12c9.98,0,18.86,4.72,24.56,12.05
	c5.82,7.44,7.92,17.13,5.71,26.31c-3.37,14-15.88,23.87-30.27,23.9c-17.19,0.01-31.13-13.93-31.13-31.12
	C390.45,292.75,390.45,292.75,390.45,292.74L390.45,292.74z M520.38,255.72c-6.77,6.47-11.65,14.66-14.1,23.7
	c-11.74-0.43-23.48-0.43-35.22,0c-2.61-9.64-7.98-18.3-15.44-24.94l32.22-65.13L520.38,255.72z M381.62,94.98h212.35l-50.16,147.94
	c-2.16,0.52-4.28,1.17-6.35,1.97l-49.55-101.07l-49.69,100.46c-2.17-0.74-4.38-1.34-6.63-1.78L381.62,94.98z M586.9,292.75
	c0.01,10.17-4.97,19.71-13.33,25.51c-5.21,3.66-11.43,5.62-17.8,5.62c-17.18-0.03-31.11-13.95-31.13-31.13
	c0-6.21,1.87-12.27,5.36-17.41c6.36-9.43,17.36-14.64,28.68-13.58C574.66,263.28,586.87,276.69,586.9,292.75z M607.01,292.75
	c-0.04-24.63-17.57-45.77-41.77-50.35l56.8-167.53H353.55l56.89,167.86c-23.42,5.24-40.08,26.01-40.12,50.01
	c0.01,17.72,9.18,34.18,24.24,43.52c-7.15,10.62-15.46,20.4-24.77,29.17c-15.07,14.21-31.85,24.99-49.95,32.08
	c-18.22-11.44-25.93-33.03-17.92-51.84l0.63-1.48l1.17-2.75c20.59-7.19,34.39-26.6,34.42-48.4c-0.03-28.29-22.96-51.22-51.25-51.25
	c-28.29,0.04-51.21,22.96-51.24,51.25c0,14.26,5.86,27.18,15.29,36.49c-1.71,3.64-3.51,7.35-5.36,11.14
	c-8.62,17.72-18.4,37.81-22.09,60.11c-7.35,44.29,4.5,79.69,33.35,99.7c17.52,12.14,35.29,16.91,53.19,16.91
	c33.69,0,67.78-16.93,101.12-33.49c24.01-11.92,48.84-24.26,73.36-30.3c9.12-2.25,18.52-3.61,28.45-5.04
	c19.71-2.85,40.09-5.79,58.14-16.24c20.94-12.12,35.27-32.46,39.31-55.79c3.48-20.03-0.71-40.09-10.91-57.1
	C604.42,311.39,607.02,302.15,607.01,292.75L607.01,292.75z"/>
</svg>
