<svg xmlns="http://www.w3.org/2000/svg" viewBox="0 0 24 24" id="redux"><path fill="#6C4EB0" d="M8.152 3.711c.899-1.136 2.592-1.697 3.746-1.726 3.236-.062 4.585 4.013 4.689 5.633l1.498.454c-.345-4.966-3.4-7.571-6.323-7.571C9.021.5 6.49 2.514 5.47 5.467c-1.393 3.937-.479 7.722 1.229 10.751-.149.197-.239.544-.209.877.029.909.793 1.666 1.708 1.666h.06a1.699 1.699 0 0 0 1.648-1.787c0-.909-.779-1.664-1.693-1.664h-.061c-.06 0-.149 0-.225.029-1.243-2.12-1.768-4.392-1.572-6.843.119-1.848.719-3.453 1.797-4.785z"></path><path fill="#6C4EB0" d="M.932 20.898c1.004 1.514 3.057 2.482 5.304 2.482.599 0 1.229-.044 1.843-.196 3.896-.757 6.848-3.119 8.541-6.601l.014-.031c.869-.076 1.543-.849 1.499-1.773-.046-.924-.795-1.665-1.708-1.665h-.061c-.943.031-1.678.833-1.648 1.788.03.484.226.878.494 1.165-1.048 2.06-2.621 3.573-5.004 4.846-1.603.847-3.296 1.166-4.944.939-1.378-.196-2.456-.819-3.116-1.817-.988-1.515-1.078-3.149-.255-4.784.601-1.181 1.499-2.044 2.099-2.469-.15-.393-.33-1.059-.42-1.558-4.437 3.209-3.986 7.599-2.638 9.674z"></path><path fill="#6C4EB0" d="M23.465 20.23c.898-1.817.824-4.875-1.469-7.495l-.014.03c-2.321-2.756-5.738-4.27-9.635-4.27h-.51c-.253-.56-.837-.909-1.497-.909h-.045c-.943 0-1.678.819-1.647 1.772.03.908.794 1.666 1.708 1.666h.074a1.692 1.692 0 0 0 1.498-1.06h.555c2.309 0 4.495.681 6.489 2.013 1.527 1.015 2.622 2.347 3.236 3.937.538 1.302.509 2.574-.045 3.635-.854 1.665-2.293 2.544-4.195 2.544-1.199 0-2.367-.379-2.967-.651-.359.301-.959.801-1.394 1.105 1.318.604 2.652.953 3.94.953 2.922 0 5.093-1.664 5.918-3.27z"></path></svg>